<mxfile host="Electron" agent="Mozilla/5.0 (Windows NT 10.0; Win64; x64) AppleWebKit/537.36 (KHTML, like Gecko) draw.io/26.0.9 Chrome/128.0.6613.186 Electron/32.2.5 Safari/537.36" version="26.0.9">
  <diagram name="Страница — 1" id="coqMjcH2xo5ikZzvvLvA">
    <mxGraphModel dx="675" dy="1559" grid="1" gridSize="10" guides="1" tooltips="1" connect="1" arrows="1" fold="1" page="1" pageScale="1" pageWidth="827" pageHeight="1169" math="0" shadow="0">
      <root>
        <mxCell id="0" />
        <mxCell id="1" parent="0" />
        <mxCell id="Y0ovbnxwXAN54IFt_Th2-1" value="Pair" style="swimlane;fontStyle=1;align=center;verticalAlign=top;childLayout=stackLayout;horizontal=1;startSize=26;horizontalStack=0;resizeParent=1;resizeParentMax=0;resizeLast=0;collapsible=1;marginBottom=0;whiteSpace=wrap;html=1;" vertex="1" parent="1">
          <mxGeometry x="575" y="-60" width="390" height="210" as="geometry" />
        </mxCell>
        <mxCell id="Y0ovbnxwXAN54IFt_Th2-2" value="- first : int&lt;div&gt;- second : double&lt;/div&gt;" style="text;strokeColor=none;fillColor=none;align=left;verticalAlign=top;spacingLeft=4;spacingRight=4;overflow=hidden;rotatable=0;points=[[0,0.5],[1,0.5]];portConstraint=eastwest;whiteSpace=wrap;html=1;" vertex="1" parent="Y0ovbnxwXAN54IFt_Th2-1">
          <mxGeometry y="26" width="390" height="34" as="geometry" />
        </mxCell>
        <mxCell id="Y0ovbnxwXAN54IFt_Th2-3" value="" style="line;strokeWidth=1;fillColor=none;align=left;verticalAlign=middle;spacingTop=-1;spacingLeft=3;spacingRight=3;rotatable=0;labelPosition=right;points=[];portConstraint=eastwest;strokeColor=inherit;" vertex="1" parent="Y0ovbnxwXAN54IFt_Th2-1">
          <mxGeometry y="60" width="390" height="8" as="geometry" />
        </mxCell>
        <mxCell id="Y0ovbnxwXAN54IFt_Th2-4" value="+ Pair()&lt;div&gt;&lt;div&gt;+ Pair(f : int, s : double)&lt;/div&gt;&lt;div&gt;&lt;div&gt;&lt;div&gt;+ operator-(other : const Pair&amp;amp;) :&amp;nbsp;&lt;span style=&quot;background-color: transparent;&quot;&gt;Pair&lt;/span&gt;&lt;/div&gt;&lt;/div&gt;&lt;/div&gt;&lt;/div&gt;&lt;div&gt;&lt;div&gt;&lt;div&gt;+ operator+(c : int) :&amp;nbsp;&lt;span style=&quot;background-color: transparent;&quot;&gt;Pair&lt;/span&gt;&lt;/div&gt;&lt;div&gt;&lt;/div&gt;&lt;/div&gt;&lt;div&gt;&lt;div&gt;+ operator+(c : double) :&amp;nbsp;&lt;span style=&quot;background-color: transparent;&quot;&gt;Pair&lt;/span&gt;&lt;br&gt;&lt;/div&gt;&lt;div&gt;&lt;div&gt;+ operator&amp;lt;&amp;lt;(out : ostream&amp;amp;, other : const Pair&amp;amp;) :&amp;nbsp;&lt;span style=&quot;background-color: transparent;&quot;&gt;ostream&amp;amp;&lt;/span&gt;&lt;/div&gt;&lt;div&gt;+ operator &amp;gt;&amp;gt; (in : istream&amp;amp;, other : Pair&amp;amp;) : istream&amp;amp;&lt;/div&gt;&lt;/div&gt;&lt;div&gt;+ operator&amp;lt;&amp;lt;(fout : fstream&amp;amp;, other : const Pair&amp;amp;) :&amp;nbsp;&lt;span style=&quot;background-color: transparent;&quot;&gt;fstream&amp;amp;&lt;br&gt;&lt;/span&gt;+ operator&amp;gt;&amp;gt;(fin : fstream&amp;amp;, other : const Pair&amp;amp;) :&amp;nbsp;&lt;span style=&quot;background-color: transparent;&quot;&gt;fstream&amp;amp;&lt;br&gt;&lt;/span&gt;&lt;/div&gt;&lt;div&gt;&lt;br&gt;&lt;/div&gt;&lt;/div&gt;&lt;div&gt;&lt;br&gt;&lt;/div&gt;&lt;/div&gt;&lt;div&gt;&lt;br&gt;&lt;/div&gt;&lt;div&gt;&lt;br&gt;&lt;/div&gt;" style="text;strokeColor=none;fillColor=none;align=left;verticalAlign=top;spacingLeft=4;spacingRight=4;overflow=hidden;rotatable=0;points=[[0,0.5],[1,0.5]];portConstraint=eastwest;whiteSpace=wrap;html=1;" vertex="1" parent="Y0ovbnxwXAN54IFt_Th2-1">
          <mxGeometry y="68" width="390" height="142" as="geometry" />
        </mxCell>
      </root>
    </mxGraphModel>
  </diagram>
</mxfile>
